<svg width="86" height="21" viewBox="0 0 86 21" fill="none" xmlns="http://www.w3.org/2000/svg">
<g clip-path="url(#clip0_403_24900)">
<path d="M37.6866 5.87823C38.6004 5.87823 39.3715 5.99182 39.9855 6.21901C40.6137 6.44619 41.1135 6.75856 41.4847 7.17032C41.8559 7.58209 42.1272 8.07905 42.2843 8.6612C42.4414 9.22915 42.527 9.86809 42.527 10.578V17.7484C42.113 17.8478 41.4704 17.9614 40.5994 18.0892C39.7427 18.217 38.7718 18.2738 37.6866 18.2738C36.987 18.2738 36.3159 18.217 35.7305 18.0608C35.1308 17.933 34.6453 17.7058 34.2169 17.4076C33.8029 17.1095 33.4745 16.7119 33.2317 16.2291C32.989 15.7464 32.8748 15.15 32.8748 14.4401C32.8748 13.7586 33.0033 13.1906 33.2746 12.722C33.5458 12.2535 33.9028 11.8701 34.3454 11.5719C34.7881 11.288 35.3307 11.0608 35.9304 10.933C36.5301 10.8052 37.144 10.7484 37.8151 10.7484C38.115 10.7484 38.4434 10.7626 38.7718 10.8052C39.1145 10.8336 39.4571 10.9046 39.8427 10.9898V10.5496C39.8427 10.2373 39.8141 9.92489 39.7284 9.64091C39.6428 9.35694 39.5143 9.10136 39.3286 8.87418C39.143 8.647 38.9003 8.49081 38.5719 8.36302C38.272 8.23523 37.8722 8.19264 37.401 8.19264C36.7585 8.19264 36.1874 8.23523 35.6448 8.33462C35.1165 8.43402 34.6881 8.51921 34.3454 8.647L34.0028 6.43199C34.3597 6.3042 34.8595 6.19061 35.5306 6.06282C36.2159 5.93503 36.9156 5.87823 37.6866 5.87823ZM37.9151 16.1014C38.7718 16.1014 39.4143 16.0588 39.8569 15.9736V12.935C39.7142 12.8924 39.4857 12.8356 39.2001 12.8072C38.9146 12.7646 38.5862 12.7504 38.2435 12.7504C37.9436 12.7504 37.6295 12.7646 37.3297 12.8072C37.0298 12.8498 36.73 12.935 36.5015 13.0628C36.2445 13.1906 36.0589 13.3468 35.8875 13.574C35.7447 13.8012 35.6591 14.0709 35.6591 14.3975C35.6591 15.0506 35.8732 15.505 36.273 15.7322C36.6586 15.9736 37.2154 16.1014 37.9151 16.1014Z" fill="#303030"/>
<path d="M48.5097 2.71193C48.5097 3.22309 48.3527 3.63485 48.01 3.94723C47.6673 4.2596 47.2818 4.38739 46.8249 4.38739C46.3537 4.38739 45.9539 4.2454 45.6255 3.94723C45.2828 3.64905 45.1257 3.25149 45.1257 2.71193C45.1257 2.17238 45.2828 1.77481 45.6255 1.46244C45.9682 1.16427 46.368 1.02228 46.8249 1.02228C47.2675 1.02228 47.6816 1.16427 48.01 1.46244C48.3384 1.77481 48.5097 2.18658 48.5097 2.71193ZM48.2099 18.0324H45.4541V6.17644H48.2099V18.0324Z" fill="#303030"/>
<path d="M54.7922 18.0324C54.0354 16.4847 53.2501 14.6957 52.4505 12.6653C51.6509 10.649 50.9227 8.47662 50.2659 6.19061H53.2072C53.3643 6.85796 53.5785 7.5679 53.7784 8.33463C54.0068 9.10136 54.221 9.8681 54.478 10.6206C54.735 11.3874 54.9921 12.1257 55.2491 12.8356C55.5204 13.5598 55.7631 14.1987 55.9916 14.7667C56.22 14.1987 56.4627 13.5598 56.734 12.8356C56.9911 12.1115 57.2481 11.3874 57.5051 10.6206C57.7621 9.8539 58.0048 9.08717 58.2333 8.33463C58.4617 7.5679 58.6616 6.87215 58.833 6.19061H61.6744C61.0176 8.50501 60.2894 10.6632 59.4898 12.6653C58.6902 14.6815 57.9049 16.4705 57.1481 18.0324H54.7922Z" fill="#303030"/>
<path d="M62.3027 12.1541C62.3027 11.1176 62.4598 10.2089 62.7739 9.41373C63.0738 8.6328 63.5021 7.97966 64.0162 7.4543C64.5302 6.92894 65.1299 6.54558 65.801 6.2758C66.4721 6.00602 67.1431 5.87823 67.8571 5.87823C69.4991 5.87823 70.7842 6.38939 71.698 7.3975C72.6118 8.40562 73.083 9.92489 73.083 11.9269C73.083 12.0689 73.083 12.2393 73.0687 12.4381C73.0687 12.6227 73.0545 12.793 73.0402 12.9492H65.187C65.2727 13.9005 65.6011 14.6389 66.2008 15.15C66.8005 15.6754 67.6715 15.931 68.7995 15.931C69.4705 15.931 70.0845 15.8742 70.6271 15.7606C71.184 15.6328 71.6266 15.505 71.9407 15.3772L72.312 17.6064C72.1692 17.6916 71.955 17.7626 71.6837 17.8478C71.4124 17.933 71.1269 18.004 70.7699 18.075C70.4272 18.1318 70.0702 18.2028 69.6562 18.2454C69.2564 18.288 68.8566 18.3022 68.4568 18.3022C67.4144 18.3022 66.5006 18.146 65.7296 17.8336C64.9585 17.5354 64.316 17.0953 63.8163 16.5415C63.3165 15.9878 62.9453 15.3488 62.6883 14.5963C62.4312 13.858 62.3027 13.0486 62.3027 12.1541ZM70.2987 10.933C70.2987 10.5496 70.2559 10.1947 70.1416 9.86809C70.0274 9.52732 69.8846 9.22915 69.6704 8.98777C69.4563 8.73219 69.2278 8.54761 68.9137 8.39142C68.6281 8.24943 68.2712 8.17844 67.8571 8.17844C67.443 8.17844 67.0575 8.26363 66.7291 8.41982C66.4149 8.576 66.1294 8.78899 65.9295 9.04456C65.701 9.30014 65.544 9.59832 65.4155 9.92489C65.2869 10.2657 65.2013 10.5922 65.1584 10.9472L70.2987 10.933Z" fill="#303030"/>
<path d="M75.5105 6.55978C76.0388 6.41779 76.7242 6.27581 77.5809 6.13382C78.4376 5.99183 79.38 5.92084 80.408 5.92084C81.3933 5.92084 82.1928 6.04863 82.8497 6.3184C83.5065 6.58818 84.0205 6.95735 84.406 7.44011C84.7915 7.92287 85.0628 8.49082 85.2199 9.15816C85.377 9.8255 85.4626 10.5638 85.4626 11.359V18.0324H82.7069V11.7991C82.7069 11.1602 82.664 10.6206 82.5784 10.1805C82.4927 9.74031 82.3499 9.37114 82.1643 9.10137C81.9787 8.83159 81.7217 8.61861 81.3932 8.49082C81.0791 8.36303 80.665 8.30623 80.2081 8.30623C79.8512 8.30623 79.5085 8.32043 79.123 8.36303C78.7374 8.40563 78.4662 8.44822 78.2948 8.47662V18.0324H75.539V6.55978H75.5105Z" fill="#303030"/>
<path d="M20.4238 14.1846C20.8665 14.1846 21.3091 14.2698 21.7089 14.4117C22.3514 13.6734 22.6941 12.8783 22.6941 12.0405C22.6941 10.6775 21.766 9.37117 20.0954 8.34886C18.2963 7.26975 15.8833 6.6734 13.3274 6.6734C10.7573 6.6734 8.35848 7.26975 6.55938 8.36306C4.87452 9.38537 3.96069 10.6917 3.96069 12.0547C3.96069 12.8783 4.30338 13.6876 4.94591 14.4259C5.35999 14.2839 5.78834 14.1988 6.23098 14.1988C7.24475 14.1988 8.18713 14.5821 8.90106 15.3063C9.40081 15.8032 9.72921 16.4138 9.90056 17.0669C10.9857 17.3225 12.1423 17.4503 13.3274 17.4503C14.5125 17.4503 15.6834 17.3083 16.7542 17.0669C16.9113 16.3996 17.254 15.789 17.7537 15.3063C18.4677 14.5821 19.41 14.1846 20.4238 14.1846ZM13.3274 11.0608C12.1708 11.0608 11.2285 10.1237 11.2285 8.9736H15.4263C15.4263 10.1237 14.484 11.0608 13.3274 11.0608Z" fill="url(#paint0_linear_403_24900)"/>
<path d="M6.03113 7.38337C6.23103 7.25558 6.44521 7.14199 6.65938 7.0426H6.6451C6.1168 6.64503 5.48855 6.46045 4.87457 6.46045C3.97502 6.46045 3.08975 6.85802 2.50434 7.63895L2.27588 7.93712L3.94647 9.18662C4.46049 8.51927 5.16014 7.90873 6.03113 7.38337Z" fill="url(#paint1_linear_403_24900)"/>
<path d="M3.96069 14.9371C3.40383 14.2272 3.04687 13.4462 2.94692 12.6227C2.91836 12.4381 2.90408 12.2393 2.90408 12.0548C2.90408 11.1034 3.21821 10.1805 3.83218 9.35699H3.61801C1.99026 9.35699 0.662354 10.6775 0.662354 12.2961V12.7079H2.86125C2.2901 13.1765 1.91886 13.8438 1.81891 14.5821C1.71896 15.3631 1.91886 16.1298 2.40433 16.7546L2.58995 16.9959C2.7613 16.357 3.0897 15.7748 3.57517 15.2921C3.67512 15.1643 3.81791 15.0507 3.96069 14.9371Z" fill="url(#paint2_linear_403_24900)"/>
<path d="M22.6942 9.18663L24.3648 7.93714L24.1221 7.61057C23.5367 6.84383 22.6514 6.43207 21.7519 6.43207C21.1379 6.43207 20.5096 6.63085 19.9813 7.01422H19.967C20.1812 7.12781 20.3954 7.2414 20.5953 7.35499C21.4806 7.90874 22.1802 8.51929 22.6942 9.18663Z" fill="url(#paint3_linear_403_24900)"/>
<path d="M25.9924 12.2819C25.9924 10.6633 24.6645 9.34277 23.0368 9.34277H22.8226C23.4223 10.1805 23.7507 11.0892 23.7507 12.0405C23.7507 12.2393 23.7364 12.4239 23.7079 12.6085C23.5936 13.4178 23.251 14.1988 22.6941 14.9229C22.8369 15.0365 22.9797 15.1501 23.1082 15.2779C23.5936 15.7606 23.922 16.3428 24.0934 16.9817L24.279 16.7403C24.7645 16.1156 24.9644 15.3489 24.8644 14.5679C24.7645 13.8296 24.3932 13.1764 23.8221 12.6937H26.021V12.2819H25.9924Z" fill="url(#paint4_linear_403_24900)"/>
<path d="M9.7579 5.99188C11.3856 5.99188 12.7136 4.6714 12.7136 3.05273C12.7136 1.43407 11.3856 0.113586 9.7579 0.113586C8.13015 0.113586 6.80225 1.43407 6.80225 3.05273C6.80225 4.6714 8.13015 5.99188 9.7579 5.99188ZM9.7579 1.44827C9.77218 1.44827 9.77218 1.44827 9.7579 1.44827C9.558 1.66125 9.42949 1.94523 9.42949 2.2576C9.42949 2.88235 9.94352 3.39351 10.5718 3.39351C10.8859 3.39351 11.1715 3.26572 11.3856 3.05273V3.06693C11.3856 3.96146 10.6574 4.68559 9.7579 4.68559C8.85835 4.68559 8.13015 3.96146 8.13015 3.06693C8.14443 2.15821 8.87263 1.44827 9.7579 1.44827Z" fill="url(#paint5_linear_403_24900)"/>
<path d="M16.8829 5.99188C18.5107 5.99188 19.8386 4.6714 19.8386 3.05273C19.8386 1.43407 18.5107 0.113586 16.8829 0.113586C15.2551 0.113586 13.9272 1.43407 13.9272 3.05273C13.9272 4.6714 15.2409 5.99188 16.8829 5.99188ZM16.8829 1.44827C16.683 1.66125 16.5545 1.94523 16.5545 2.2576C16.5545 2.88235 17.0685 3.39351 17.6968 3.39351C18.0109 3.39351 18.2965 3.26572 18.5107 3.05273V3.06693C18.5107 3.96146 17.7824 4.68559 16.8829 4.68559C15.9834 4.68559 15.2551 3.96146 15.2551 3.06693C15.2551 2.15821 15.9834 1.44827 16.8829 1.44827Z" fill="url(#paint6_linear_403_24900)"/>
<path d="M6.21688 15.0081C4.58913 15.0081 3.26123 16.3286 3.26123 17.9473C3.26123 19.5659 4.58913 20.8864 6.21688 20.8864C6.55957 20.8864 6.88797 20.8296 7.18782 20.716C7.15927 20.6876 7.13071 20.6592 7.10215 20.6308C6.24544 19.7789 5.95987 18.6856 6.45962 18.1886C6.95937 17.6917 8.05881 17.9757 8.91552 18.8276C8.94408 18.856 8.97264 18.8844 9.00119 18.9128C9.11542 18.6146 9.17254 18.288 9.17254 17.9473C9.17254 16.3286 7.85891 15.0081 6.21688 15.0081Z" fill="url(#paint7_linear_403_24900)"/>
<path d="M20.4239 15.0081C18.7962 15.0081 17.4683 16.3286 17.4683 17.9473C17.4683 18.288 17.5254 18.6146 17.6396 18.9128C17.6682 18.8844 17.6967 18.856 17.7253 18.8276C18.582 17.9757 19.6814 17.6917 20.1812 18.1886C20.6809 18.6856 20.3954 19.7789 19.5386 20.6308C19.5101 20.6592 19.4815 20.6876 19.453 20.716C19.7528 20.8296 20.0812 20.8864 20.4239 20.8864C22.0517 20.8864 23.3796 19.5659 23.3796 17.9473C23.3796 16.3286 22.0517 15.0081 20.4239 15.0081Z" fill="url(#paint8_linear_403_24900)"/>
</g>
<defs>
<linearGradient id="paint0_linear_403_24900" x1="8.04282" y1="19.1451" x2="19.4147" y2="3.68566" gradientUnits="userSpaceOnUse">
<stop stop-color="#FF7700"/>
<stop offset="0.7423" stop-color="#FF3554"/>
</linearGradient>
<linearGradient id="paint1_linear_403_24900" x1="0.12582" y1="13.3214" x2="11.4977" y2="-2.13806" gradientUnits="userSpaceOnUse">
<stop stop-color="#FF7700"/>
<stop offset="0.7423" stop-color="#FF3554"/>
</linearGradient>
<linearGradient id="paint2_linear_403_24900" x1="1.4864" y1="14.3222" x2="12.8583" y2="-1.13719" gradientUnits="userSpaceOnUse">
<stop stop-color="#FF7700"/>
<stop offset="0.7423" stop-color="#FF3554"/>
</linearGradient>
<linearGradient id="paint3_linear_403_24900" x1="11.569" y1="21.7389" x2="22.9408" y2="6.27942" gradientUnits="userSpaceOnUse">
<stop stop-color="#FF7700"/>
<stop offset="0.7423" stop-color="#FF3554"/>
</linearGradient>
<linearGradient id="paint4_linear_403_24900" x1="15.1252" y1="24.3549" x2="26.4971" y2="8.89544" gradientUnits="userSpaceOnUse">
<stop stop-color="#FF7700"/>
<stop offset="0.7423" stop-color="#FF3554"/>
</linearGradient>
<linearGradient id="paint5_linear_403_24900" x1="1.41763" y1="14.2716" x2="12.7895" y2="-1.18787" gradientUnits="userSpaceOnUse">
<stop stop-color="#FF7700"/>
<stop offset="0.7423" stop-color="#FF3554"/>
</linearGradient>
<linearGradient id="paint6_linear_403_24900" x1="6.01753" y1="17.6552" x2="17.3894" y2="2.19578" gradientUnits="userSpaceOnUse">
<stop stop-color="#FF7700"/>
<stop offset="0.7423" stop-color="#FF3554"/>
</linearGradient>
<linearGradient id="paint7_linear_403_24900" x1="6.2356" y1="17.8156" x2="17.6075" y2="2.35617" gradientUnits="userSpaceOnUse">
<stop stop-color="#FF7700"/>
<stop offset="0.7423" stop-color="#FF3554"/>
</linearGradient>
<linearGradient id="paint8_linear_403_24900" x1="15.4678" y1="24.6069" x2="26.8397" y2="9.14742" gradientUnits="userSpaceOnUse">
<stop stop-color="#FF7700"/>
<stop offset="0.7423" stop-color="#FF3554"/>
</linearGradient>
<clipPath id="clip0_403_24900">
<rect width="85" height="21" fill="white" transform="translate(0.5625)"/>
</clipPath>
</defs>
</svg>
