<svg width="89" height="34" viewBox="0 0 89 34" fill="none" xmlns="http://www.w3.org/2000/svg">
<path d="M35.3653 19.5502C36.2381 19.5502 36.9746 19.6595 37.5611 19.8783C38.1612 20.097 38.6385 20.3977 38.9932 20.7942C39.3478 21.1906 39.6069 21.6691 39.7569 22.2296C39.9069 22.7764 39.9888 23.3916 39.9888 24.0751V30.9787C39.5933 31.0744 38.9795 31.1838 38.1476 31.3068C37.3292 31.4299 36.4018 31.4846 35.3653 31.4846C34.697 31.4846 34.056 31.4299 33.4968 31.2795C32.924 31.1565 32.4602 30.9377 32.0511 30.6506C31.6556 30.3636 31.3419 29.9808 31.11 29.516C30.8782 29.0512 30.769 28.477 30.769 27.7935C30.769 27.1373 30.8918 26.5905 31.1509 26.1394C31.4101 25.6882 31.751 25.3191 32.1738 25.0321C32.5966 24.7586 33.1149 24.5399 33.6877 24.4169C34.2605 24.2938 34.847 24.2392 35.488 24.2392C35.7744 24.2392 36.0881 24.2528 36.4018 24.2938C36.7291 24.3212 37.0565 24.3895 37.4247 24.4716V24.0478C37.4247 23.747 37.3974 23.4463 37.3156 23.1729C37.2338 22.8995 37.111 22.6534 36.9337 22.4347C36.7564 22.2159 36.5246 22.0655 36.2109 21.9425C35.9245 21.8195 35.5426 21.7785 35.0925 21.7785C34.4788 21.7785 33.9332 21.8195 33.4149 21.9152C32.9103 22.0109 32.5012 22.0929 32.1738 22.2159L31.8465 20.0833C32.1875 19.9603 32.6648 19.8509 33.3058 19.7279C33.9605 19.6049 34.6288 19.5502 35.3653 19.5502ZM35.5835 29.393C36.4018 29.393 37.0156 29.3519 37.4383 29.2699V26.3444C37.302 26.3034 37.0837 26.2487 36.811 26.2214C36.5382 26.1804 36.2245 26.1667 35.8972 26.1667C35.6108 26.1667 35.3107 26.1804 35.0243 26.2214C34.7379 26.2624 34.4515 26.3444 34.2333 26.4675C33.9878 26.5905 33.8105 26.7409 33.6468 26.9596C33.5104 27.1783 33.4286 27.4381 33.4286 27.7525C33.4286 28.3813 33.6332 28.8188 34.015 29.0375C34.3833 29.2699 34.9152 29.393 35.5835 29.393Z" fill="#303030"/>
<path d="M45.7036 16.5017C45.7036 16.9938 45.5535 17.3903 45.2262 17.691C44.8989 17.9918 44.5306 18.1148 44.0942 18.1148C43.6441 18.1148 43.2622 17.9781 42.9485 17.691C42.6212 17.4039 42.4712 17.0212 42.4712 16.5017C42.4712 15.9822 42.6212 15.5994 42.9485 15.2987C43.2759 15.0116 43.6578 14.8749 44.0942 14.8749C44.517 14.8749 44.9125 15.0116 45.2262 15.2987C45.5399 15.5994 45.7036 15.9959 45.7036 16.5017ZM45.4171 31.2522H42.7849V19.8373H45.4171V31.2522Z" fill="#303030"/>
<path d="M51.7043 31.2522C50.9815 29.7621 50.2313 28.0396 49.4676 26.0847C48.7038 24.1435 48.0082 22.0519 47.3809 19.851H50.1904C50.3404 20.4935 50.545 21.177 50.736 21.9152C50.9542 22.6534 51.1588 23.3916 51.4043 24.1162C51.6498 24.8544 51.8953 25.5652 52.1408 26.2488C52.3999 26.946 52.6317 27.5611 52.85 28.108C53.0682 27.5611 53.3 26.946 53.5592 26.2488C53.8047 25.5516 54.0502 24.8544 54.2957 24.1162C54.5412 23.378 54.773 22.6397 54.9912 21.9152C55.2094 21.177 55.4004 20.5071 55.5641 19.851H58.2781C57.6508 22.0793 56.9552 24.1572 56.1914 26.0847C55.4277 28.0259 54.6775 29.7484 53.9547 31.2522H51.7043Z" fill="#303030"/>
<path d="M58.8784 25.5925C58.8784 24.5946 59.0284 23.7197 59.3285 22.9541C59.6149 22.2023 60.0241 21.5734 60.5151 21.0676C61.006 20.5618 61.5789 20.1927 62.2199 19.9329C62.8609 19.6732 63.5019 19.5502 64.1839 19.5502C65.7523 19.5502 66.9798 20.0423 67.8527 21.0129C68.7255 21.9835 69.1756 23.4463 69.1756 25.3738C69.1756 25.5105 69.1756 25.6746 69.162 25.866C69.162 26.0437 69.1483 26.2077 69.1347 26.3581H61.6334C61.7153 27.274 62.029 27.9849 62.6018 28.477C63.1746 28.9828 64.0066 29.2289 65.084 29.2289C65.725 29.2289 66.3115 29.1742 66.8298 29.0649C67.3617 28.9418 67.7845 28.8188 68.0845 28.6958L68.4391 30.842C68.3027 30.9241 68.0982 30.9924 67.839 31.0744C67.5799 31.1565 67.3071 31.2248 66.9661 31.2932C66.6388 31.3478 66.2978 31.4162 65.9023 31.4572C65.5204 31.4982 65.1386 31.5119 64.7567 31.5119C63.7611 31.5119 62.8882 31.3615 62.1517 31.0608C61.4152 30.7737 60.8015 30.3499 60.3241 29.8167C59.8468 29.2836 59.4922 28.6684 59.2467 27.9439C59.0012 27.233 58.8784 26.4538 58.8784 25.5925ZM66.5161 24.4169C66.5161 24.0478 66.4752 23.706 66.366 23.3916C66.2569 23.0635 66.1205 22.7764 65.916 22.544C65.7114 22.2979 65.4932 22.1202 65.1931 21.9699C64.9203 21.8332 64.5794 21.7648 64.1839 21.7648C63.7883 21.7648 63.4201 21.8468 63.1064 21.9972C62.8064 22.1476 62.5336 22.3526 62.3426 22.5987C62.1244 22.8448 61.9744 23.1319 61.8516 23.4463C61.7289 23.7744 61.6471 24.0888 61.6061 24.4306L66.5161 24.4169Z" fill="#303030"/>
<path d="M71.4941 20.2064C71.9988 20.0697 72.6534 19.933 73.4717 19.7962C74.2901 19.6595 75.1902 19.5912 76.1722 19.5912C77.1133 19.5912 77.877 19.7142 78.5044 19.974C79.1318 20.2337 79.6228 20.5891 79.991 21.0539C80.3593 21.5187 80.6184 22.0656 80.7684 22.7081C80.9185 23.3506 81.0003 24.0615 81.0003 24.827V31.2522H78.368V25.2508C78.368 24.6356 78.3271 24.1161 78.2453 23.6923C78.1634 23.2686 78.0271 22.9131 77.8498 22.6534C77.6725 22.3936 77.427 22.1886 77.1133 22.0656C76.8132 21.9425 76.4177 21.8878 75.9813 21.8878C75.6403 21.8878 75.313 21.9015 74.9447 21.9425C74.5765 21.9835 74.3173 22.0245 74.1537 22.0519V31.2522H71.5214V20.2064H71.4941Z" fill="#303030"/>
<path d="M18.8758 27.5475C19.2986 27.5475 19.7214 27.6295 20.1032 27.7662C20.717 27.0554 21.0443 26.2898 21.0443 25.4833C21.0443 24.1709 20.1578 22.9132 18.5621 21.9289C16.8436 20.89 14.5387 20.3158 12.0974 20.3158C9.64239 20.3158 7.3511 20.89 5.63263 21.9426C4.02326 22.9269 3.15039 24.1846 3.15039 25.4969C3.15039 26.2898 3.47772 27.069 4.09146 27.7799C4.48698 27.6432 4.89614 27.5612 5.31894 27.5612C6.28728 27.5612 7.18743 27.9303 7.86937 28.6275C8.34672 29.106 8.66041 29.6938 8.82407 30.3226C9.86061 30.5687 10.9653 30.6917 12.0974 30.6917C13.2294 30.6917 14.3477 30.555 15.3706 30.3226C15.5207 29.6801 15.848 29.0923 16.3253 28.6275C17.0073 27.9303 17.9074 27.5475 18.8758 27.5475ZM12.0974 24.54C10.9926 24.54 10.0925 23.6377 10.0925 22.5304H14.1022C14.1022 23.6377 13.2021 24.54 12.0974 24.54Z" fill="url(#paint0_linear_456_40925)"/>
<path d="M5.12798 20.9993C5.31892 20.8763 5.5235 20.7669 5.72808 20.6712H5.71445C5.20982 20.2884 4.60971 20.1107 4.02325 20.1107C3.16402 20.1107 2.31842 20.4935 1.75923 21.2454L1.54102 21.5325L3.13674 22.7355C3.62773 22.0929 4.29602 21.5051 5.12798 20.9993Z" fill="url(#paint1_linear_456_40925)"/>
<path d="M3.15053 28.2721C2.61862 27.5885 2.27766 26.8367 2.18219 26.0438C2.15491 25.866 2.14127 25.6747 2.14127 25.4969C2.14127 24.581 2.44132 23.6924 3.02778 22.8995H2.8232C1.2684 22.8995 0 24.1709 0 25.7293V26.1258H2.10035C1.55481 26.5769 1.2002 27.2194 1.10473 27.9303C1.00926 28.6822 1.2002 29.4204 1.66392 30.0219L1.84122 30.2543C2.00488 29.6391 2.31857 29.0786 2.78229 28.6138C2.87776 28.4908 3.01414 28.3814 3.15053 28.2721Z" fill="url(#paint2_linear_456_40925)"/>
<path d="M21.0444 22.7355L22.6402 21.5325L22.4083 21.218C21.8491 20.4798 21.0035 20.0834 20.1443 20.0834C19.5578 20.0834 18.9577 20.2748 18.4531 20.6439H18.4395C18.644 20.7532 18.8486 20.8626 19.0396 20.972C19.8852 21.5051 20.5534 22.0929 21.0444 22.7355Z" fill="url(#paint3_linear_456_40925)"/>
<path d="M24.195 25.7157C24.195 24.1572 22.9266 22.8859 21.3718 22.8859H21.1672C21.74 23.6924 22.0537 24.5673 22.0537 25.4833C22.0537 25.6747 22.0401 25.8524 22.0128 26.0301C21.9037 26.8093 21.5763 27.5612 21.0444 28.2584C21.1808 28.3678 21.3172 28.4771 21.44 28.6001C21.9037 29.0649 22.2174 29.6254 22.381 30.2406L22.5583 30.0082C23.022 29.4067 23.213 28.6685 23.1175 27.9166C23.022 27.2058 22.6674 26.5769 22.1219 26.1121H24.2222V25.7157H24.195Z" fill="url(#paint4_linear_456_40925)"/>
<path d="M8.68795 19.6596C10.2428 19.6596 11.5112 18.3882 11.5112 16.8298C11.5112 15.2714 10.2428 14 8.68795 14C7.13314 14 5.86475 15.2714 5.86475 16.8298C5.86475 18.3882 7.13314 19.6596 8.68795 19.6596ZM8.68795 15.285C8.70159 15.285 8.70159 15.285 8.68795 15.285C8.49701 15.4901 8.37426 15.7635 8.37426 16.0643C8.37426 16.6658 8.86525 17.1579 9.46535 17.1579C9.7654 17.1579 10.0382 17.0349 10.2428 16.8298V16.8435C10.2428 17.7047 9.54718 18.4019 8.68795 18.4019C7.82871 18.4019 7.13314 17.7047 7.13314 16.8435C7.14678 15.9686 7.84235 15.285 8.68795 15.285Z" fill="url(#paint5_linear_456_40925)"/>
<path d="M15.4936 19.6596C17.0484 19.6596 18.3168 18.3882 18.3168 16.8298C18.3168 15.2714 17.0484 14 15.4936 14C13.9388 14 12.6704 15.2714 12.6704 16.8298C12.6704 18.3882 13.9252 19.6596 15.4936 19.6596ZM15.4936 15.285C15.3027 15.4901 15.1799 15.7635 15.1799 16.0643C15.1799 16.6658 15.6709 17.1579 16.271 17.1579C16.5711 17.1579 16.8438 17.0349 17.0484 16.8298V16.8435C17.0484 17.7047 16.3528 18.4019 15.4936 18.4019C14.6344 18.4019 13.9388 17.7047 13.9388 16.8435C13.9388 15.9686 14.6344 15.285 15.4936 15.285Z" fill="url(#paint6_linear_456_40925)"/>
<path d="M5.30562 28.3405C3.75082 28.3405 2.48242 29.6118 2.48242 31.1703C2.48242 32.7287 3.75082 34.0001 5.30562 34.0001C5.63295 34.0001 5.94664 33.9454 6.23305 33.836C6.20578 33.8087 6.1785 33.7813 6.15122 33.754C5.3329 32.9338 5.06013 31.8811 5.53748 31.4027C6.01484 30.9242 7.06501 31.1976 7.88333 32.0178C7.91061 32.0452 7.93789 32.0725 7.96516 32.0999C8.07427 31.8128 8.12883 31.4983 8.12883 31.1703C8.12883 29.6118 6.87407 28.3405 5.30562 28.3405Z" fill="url(#paint7_linear_456_40925)"/>
<path d="M18.8759 28.3405C17.3211 28.3405 16.0527 29.6118 16.0527 31.1703C16.0527 31.4983 16.1073 31.8128 16.2164 32.0999C16.2437 32.0725 16.271 32.0452 16.2982 32.0178C17.1165 31.1976 18.1667 30.9242 18.6441 31.4027C19.1214 31.8811 18.8487 32.9338 18.0303 33.754C18.0031 33.7813 17.9758 33.8087 17.9485 33.836C18.2349 33.9454 18.5486 34.0001 18.8759 34.0001C20.4307 34.0001 21.6991 32.7287 21.6991 31.1703C21.6991 29.6118 20.4307 28.3405 18.8759 28.3405Z" fill="url(#paint8_linear_456_40925)"/>
<path d="M2.232 4.4C3.03733 4.4 3.65333 4.54667 4.08 4.84C4.512 5.13333 4.728 5.592 4.728 6.216C4.728 6.54133 4.66933 6.82133 4.552 7.056C4.44 7.28533 4.27467 7.47467 4.056 7.624C3.83733 7.768 3.57067 7.87467 3.256 7.944C2.94133 8.01333 2.58133 8.048 2.176 8.048H1.672V10H0.664V4.536C0.898667 4.48267 1.15733 4.448 1.44 4.432C1.728 4.41067 1.992 4.4 2.232 4.4ZM2.304 5.272C2.048 5.272 1.83733 5.28 1.672 5.296V7.184H2.16C2.64533 7.184 3.01867 7.11733 3.28 6.984C3.54133 6.84533 3.672 6.58667 3.672 6.208C3.672 6.02667 3.63733 5.87467 3.568 5.752C3.49867 5.62933 3.40267 5.53333 3.28 5.464C3.15733 5.39467 3.01067 5.34667 2.84 5.32C2.67467 5.288 2.496 5.272 2.304 5.272ZM6.71237 7.224C6.71237 7.528 6.74971 7.80533 6.82437 8.056C6.89904 8.30133 7.00571 8.512 7.14437 8.688C7.28837 8.85867 7.46171 8.992 7.66437 9.088C7.86704 9.184 8.09637 9.232 8.35238 9.232C8.60304 9.232 8.82971 9.184 9.03237 9.088C9.23504 8.992 9.40571 8.85867 9.54437 8.688C9.68837 8.512 9.79771 8.30133 9.87238 8.056C9.94704 7.80533 9.98438 7.528 9.98438 7.224C9.98438 6.92 9.94704 6.64533 9.87238 6.4C9.79771 6.14933 9.68837 5.93867 9.54437 5.768C9.40571 5.592 9.23504 5.456 9.03237 5.36C8.82971 5.264 8.60304 5.216 8.35238 5.216C8.09637 5.216 7.86704 5.264 7.66437 5.36C7.46171 5.456 7.28837 5.592 7.14437 5.768C7.00571 5.944 6.89904 6.15467 6.82437 6.4C6.74971 6.64533 6.71237 6.92 6.71237 7.224ZM11.0404 7.224C11.0404 7.69867 10.9684 8.11733 10.8244 8.48C10.6857 8.84267 10.4937 9.14667 10.2484 9.392C10.0084 9.632 9.72571 9.81333 9.40037 9.936C9.07504 10.0587 8.72837 10.12 8.36037 10.12C7.99237 10.12 7.64304 10.0587 7.31237 9.936C6.98704 9.81333 6.70171 9.632 6.45637 9.392C6.21637 9.14667 6.02437 8.84267 5.88037 8.48C5.73637 8.11733 5.66437 7.69867 5.66437 7.224C5.66437 6.74933 5.73637 6.33333 5.88037 5.976C6.02437 5.61333 6.21904 5.30933 6.46437 5.064C6.71504 4.81867 7.00304 4.63467 7.32837 4.512C7.65371 4.38933 7.99771 4.328 8.36037 4.328C8.72304 4.328 9.06704 4.38933 9.39237 4.512C9.71771 4.63467 10.0004 4.81867 10.2404 5.064C10.4857 5.30933 10.6804 5.61333 10.8244 5.976C10.9684 6.33333 11.0404 6.74933 11.0404 7.224ZM15.8288 5.08C15.9141 5.368 16.0048 5.66933 16.1008 5.984C16.1968 6.29333 16.2955 6.60533 16.3968 6.92C16.5035 7.22933 16.6075 7.536 16.7088 7.84C16.8155 8.13867 16.9168 8.42133 17.0128 8.688C17.0928 8.4 17.1701 8.088 17.2448 7.752C17.3195 7.41067 17.3941 7.05867 17.4688 6.696C17.5435 6.328 17.6155 5.95467 17.6848 5.576C17.7595 5.19733 17.8288 4.824 17.8928 4.456H18.9328C18.7461 5.45867 18.5381 6.424 18.3088 7.352C18.0795 8.27467 17.8235 9.15733 17.5408 10H16.5808C16.1648 8.92267 15.7621 7.74667 15.3728 6.472C15.1755 7.11733 14.9755 7.73067 14.7728 8.312C14.5701 8.89333 14.3675 9.456 14.1648 10H13.2048C12.9168 9.15733 12.6581 8.27467 12.4288 7.352C12.2048 6.424 11.9995 5.45867 11.8128 4.456H12.8928C12.9568 4.81867 13.0235 5.18933 13.0928 5.568C13.1675 5.94667 13.2421 6.32 13.3168 6.688C13.3968 7.05067 13.4768 7.40267 13.5568 7.744C13.6368 8.08533 13.7168 8.4 13.7968 8.688C13.8981 8.416 13.9995 8.13067 14.1008 7.832C14.2075 7.528 14.3115 7.22133 14.4128 6.912C14.5141 6.59733 14.6101 6.28533 14.7008 5.976C14.7968 5.66667 14.8848 5.368 14.9648 5.08H15.8288ZM20.0246 10V4.456H23.5846V5.312H21.0326V6.68H23.3046V7.52H21.0326V9.144H23.7766V10H20.0246ZM26.4801 4.4C27.2801 4.4 27.8908 4.54667 28.3121 4.84C28.7388 5.13333 28.9521 5.58133 28.9521 6.184C28.9521 6.936 28.5815 7.44533 27.8401 7.712C27.9415 7.83467 28.0561 7.984 28.1841 8.16C28.3121 8.336 28.4428 8.528 28.5761 8.736C28.7095 8.93867 28.8375 9.14933 28.9601 9.368C29.0828 9.58133 29.1921 9.792 29.2881 10H28.1601C28.0588 9.808 27.9495 9.616 27.8321 9.424C27.7148 9.22667 27.5948 9.03733 27.4721 8.856C27.3548 8.66933 27.2375 8.496 27.1201 8.336C27.0028 8.17067 26.8935 8.024 26.7921 7.896C26.7175 7.90133 26.6535 7.904 26.6001 7.904C26.5468 7.904 26.4961 7.904 26.4481 7.904H25.9601V10H24.9521V4.536C25.1975 4.48267 25.4588 4.448 25.7361 4.432C26.0135 4.41067 26.2615 4.4 26.4801 4.4ZM26.5521 5.272C26.3388 5.272 26.1415 5.28 25.9601 5.296V7.088H26.4001C26.6455 7.088 26.8615 7.07467 27.0481 7.048C27.2348 7.02133 27.3895 6.97333 27.5121 6.904C27.6401 6.83467 27.7361 6.74133 27.8001 6.624C27.8641 6.50667 27.8961 6.35733 27.8961 6.176C27.8961 6.00533 27.8641 5.86133 27.8001 5.744C27.7361 5.62667 27.6428 5.53333 27.5201 5.464C27.4028 5.39467 27.2615 5.34667 27.0961 5.32C26.9308 5.288 26.7495 5.272 26.5521 5.272ZM30.3093 10V4.456H33.8693V5.312H31.3173V6.68H33.5893V7.52H31.3173V9.144H34.0613V10H30.3093ZM36.2448 9.168C36.3035 9.17333 36.3808 9.17867 36.4768 9.184C36.5728 9.184 36.7035 9.184 36.8688 9.184C37.5461 9.184 38.0501 9.01333 38.3808 8.672C38.7168 8.32533 38.8848 7.84267 38.8848 7.224C38.8848 6.59467 38.7221 6.112 38.3968 5.776C38.0715 5.44 37.5675 5.272 36.8848 5.272C36.5861 5.272 36.3728 5.28 36.2448 5.296V9.168ZM39.9408 7.224C39.9408 7.704 39.8661 8.12267 39.7168 8.48C39.5675 8.832 39.3541 9.128 39.0768 9.368C38.8048 9.60267 38.4741 9.77867 38.0848 9.896C37.7008 10.008 37.2741 10.064 36.8048 10.064C36.5808 10.064 36.3275 10.0533 36.0448 10.032C35.7621 10.016 35.4928 9.97867 35.2368 9.92V4.536C35.4928 4.47733 35.7648 4.44 36.0528 4.424C36.3408 4.408 36.5968 4.4 36.8208 4.4C37.2848 4.4 37.7088 4.456 38.0928 4.568C38.4768 4.67467 38.8048 4.84533 39.0768 5.08C39.3541 5.30933 39.5675 5.60267 39.7168 5.96C39.8661 6.312 39.9408 6.73333 39.9408 7.224ZM45.0607 10.064C44.7674 10.064 44.4714 10.0533 44.1727 10.032C43.874 10.016 43.6127 9.97867 43.3887 9.92V4.536C43.506 4.51467 43.6314 4.496 43.7647 4.48C43.898 4.45867 44.034 4.44267 44.1727 4.432C44.3114 4.42133 44.4474 4.41333 44.5807 4.408C44.7194 4.40267 44.85 4.4 44.9727 4.4C45.3087 4.4 45.6207 4.42667 45.9087 4.48C46.1967 4.528 46.4447 4.61067 46.6527 4.728C46.866 4.84533 47.0314 5 47.1487 5.192C47.266 5.384 47.3247 5.62133 47.3247 5.904C47.3247 6.16533 47.2607 6.38933 47.1327 6.576C47.01 6.76267 46.8367 6.912 46.6127 7.024C46.9487 7.136 47.1967 7.30133 47.3567 7.52C47.5167 7.73867 47.5967 8.016 47.5967 8.352C47.5967 8.92267 47.3887 9.352 46.9727 9.64C46.5567 9.92267 45.9194 10.064 45.0607 10.064ZM44.3807 7.504V9.192C44.4927 9.20267 44.6127 9.21067 44.7407 9.216C44.8687 9.22133 44.986 9.224 45.0927 9.224C45.3007 9.224 45.4927 9.21067 45.6687 9.184C45.85 9.15733 46.0047 9.112 46.1327 9.048C46.266 8.97867 46.37 8.888 46.4447 8.776C46.5247 8.664 46.5647 8.52 46.5647 8.344C46.5647 8.02933 46.45 7.81067 46.2207 7.688C45.9914 7.56533 45.674 7.504 45.2687 7.504H44.3807ZM44.3807 6.712H45.0927C45.4767 6.712 45.778 6.65867 45.9967 6.552C46.2154 6.44 46.3247 6.24267 46.3247 5.96C46.3247 5.69333 46.21 5.504 45.9807 5.392C45.7567 5.28 45.4634 5.224 45.1007 5.224C44.946 5.224 44.8074 5.22667 44.6847 5.232C44.5674 5.23733 44.466 5.24533 44.3807 5.256V6.712ZM50.5708 6.912C50.8108 6.512 51.0455 6.10667 51.2748 5.696C51.5041 5.28533 51.7121 4.872 51.8988 4.456H53.0188C52.7201 5.02133 52.4081 5.584 52.0828 6.144C51.7628 6.69867 51.4188 7.25867 51.0508 7.824V10H50.0428V7.84C49.6748 7.26933 49.3281 6.704 49.0028 6.144C48.6775 5.584 48.3655 5.02133 48.0668 4.456H49.2508C49.4375 4.872 49.6428 5.28533 49.8668 5.696C50.0908 6.10667 50.3255 6.512 50.5708 6.912Z" fill="#B4B4BB"/>
<defs>
<linearGradient id="paint0_linear_456_40925" x1="7.04959" y1="32.3235" x2="18.024" y2="17.5223" gradientUnits="userSpaceOnUse">
<stop stop-color="#FF7700"/>
<stop offset="0.7423" stop-color="#FF3554"/>
</linearGradient>
<linearGradient id="paint1_linear_456_40925" x1="-0.512694" y1="26.7164" x2="10.4617" y2="11.9152" gradientUnits="userSpaceOnUse">
<stop stop-color="#FF7700"/>
<stop offset="0.7423" stop-color="#FF3554"/>
</linearGradient>
<linearGradient id="paint2_linear_456_40925" x1="0.787114" y1="27.6801" x2="11.7615" y2="12.8789" gradientUnits="userSpaceOnUse">
<stop stop-color="#FF7700"/>
<stop offset="0.7423" stop-color="#FF3554"/>
</linearGradient>
<linearGradient id="paint3_linear_456_40925" x1="10.4177" y1="34.8207" x2="21.3921" y2="20.0195" gradientUnits="userSpaceOnUse">
<stop stop-color="#FF7700"/>
<stop offset="0.7423" stop-color="#FF3554"/>
</linearGradient>
<linearGradient id="paint4_linear_456_40925" x1="13.8147" y1="37.3395" x2="24.7891" y2="22.5383" gradientUnits="userSpaceOnUse">
<stop stop-color="#FF7700"/>
<stop offset="0.7423" stop-color="#FF3554"/>
</linearGradient>
<linearGradient id="paint5_linear_456_40925" x1="0.721431" y1="27.6313" x2="11.6958" y2="12.8301" gradientUnits="userSpaceOnUse">
<stop stop-color="#FF7700"/>
<stop offset="0.7423" stop-color="#FF3554"/>
</linearGradient>
<linearGradient id="paint6_linear_456_40925" x1="5.11515" y1="30.889" x2="16.0896" y2="16.0879" gradientUnits="userSpaceOnUse">
<stop stop-color="#FF7700"/>
<stop offset="0.7423" stop-color="#FF3554"/>
</linearGradient>
<linearGradient id="paint7_linear_456_40925" x1="5.32351" y1="31.0435" x2="16.2979" y2="16.2423" gradientUnits="userSpaceOnUse">
<stop stop-color="#FF7700"/>
<stop offset="0.7423" stop-color="#FF3554"/>
</linearGradient>
<linearGradient id="paint8_linear_456_40925" x1="14.1419" y1="37.5821" x2="25.1163" y2="22.7809" gradientUnits="userSpaceOnUse">
<stop stop-color="#FF7700"/>
<stop offset="0.7423" stop-color="#FF3554"/>
</linearGradient>
</defs>
</svg>
