<svg width="101" height="42" viewBox="0 0 101 42" fill="none" xmlns="http://www.w3.org/2000/svg">
<rect x="36" y="25" width="64" height="17" rx="2" fill="#F7F7FA"/>
<path d="M40.8807 37V29.7273H43.3381C43.9086 29.7273 44.375 29.8303 44.7372 30.0362C45.1018 30.2398 45.3717 30.5156 45.5469 30.8636C45.7221 31.2116 45.8097 31.5999 45.8097 32.0284C45.8097 32.4569 45.7221 32.8464 45.5469 33.1967C45.3741 33.5471 45.1065 33.8265 44.7443 34.0348C44.3821 34.2408 43.9181 34.3438 43.3523 34.3438H41.5909V33.5625H43.3239C43.7145 33.5625 44.0282 33.495 44.2649 33.3601C44.5017 33.2251 44.6733 33.0429 44.7798 32.8132C44.8887 32.5812 44.9432 32.3196 44.9432 32.0284C44.9432 31.7372 44.8887 31.4768 44.7798 31.2472C44.6733 31.0175 44.5005 30.8376 44.2614 30.7074C44.0223 30.5748 43.705 30.5085 43.3097 30.5085H41.7614V37H40.8807ZM49.272 37.1136C48.7796 37.1136 48.3475 36.9964 47.9759 36.7621C47.6065 36.5277 47.3177 36.1998 47.1094 35.7784C46.9034 35.357 46.8004 34.8646 46.8004 34.3011C46.8004 33.733 46.9034 33.237 47.1094 32.8132C47.3177 32.3894 47.6065 32.0604 47.9759 31.826C48.3475 31.5916 48.7796 31.4744 49.272 31.4744C49.7644 31.4744 50.1953 31.5916 50.5646 31.826C50.9363 32.0604 51.2251 32.3894 51.4311 32.8132C51.6394 33.237 51.7436 33.733 51.7436 34.3011C51.7436 34.8646 51.6394 35.357 51.4311 35.7784C51.2251 36.1998 50.9363 36.5277 50.5646 36.7621C50.1953 36.9964 49.7644 37.1136 49.272 37.1136ZM49.272 36.3608C49.6461 36.3608 49.9538 36.2649 50.1953 36.0732C50.4368 35.8814 50.6155 35.6293 50.7315 35.3168C50.8475 35.0043 50.9055 34.6657 50.9055 34.3011C50.9055 33.9366 50.8475 33.5968 50.7315 33.282C50.6155 32.9671 50.4368 32.7126 50.1953 32.5185C49.9538 32.3243 49.6461 32.2273 49.272 32.2273C48.898 32.2273 48.5902 32.3243 48.3487 32.5185C48.1072 32.7126 47.9285 32.9671 47.8125 33.282C47.6965 33.5968 47.6385 33.9366 47.6385 34.3011C47.6385 34.6657 47.6965 35.0043 47.8125 35.3168C47.9285 35.6293 48.1072 35.8814 48.3487 36.0732C48.5902 36.2649 48.898 36.3608 49.272 36.3608ZM54.0732 37L52.4112 31.5455H53.2919L54.4709 35.7216H54.5277L55.6925 31.5455H56.5874L57.7379 35.7074H57.7947L58.9737 31.5455H59.8544L58.1925 37H57.3686L56.1754 32.8097H56.0902L54.897 37H54.0732ZM63.0637 37.1136C62.5382 37.1136 62.0848 36.9976 61.7037 36.7656C61.3249 36.5312 61.0325 36.2045 60.8265 35.7855C60.6229 35.3641 60.5211 34.8741 60.5211 34.3153C60.5211 33.7566 60.6229 33.2642 60.8265 32.8381C61.0325 32.4096 61.319 32.0758 61.6859 31.8366C62.0552 31.5952 62.4861 31.4744 62.9785 31.4744C63.2626 31.4744 63.5431 31.5218 63.8201 31.6165C64.0971 31.7112 64.3493 31.8651 64.5765 32.0781C64.8038 32.2888 64.9849 32.5682 65.1199 32.9162C65.2548 33.2642 65.3223 33.6927 65.3223 34.2017V34.5568H61.1177V33.8324H64.47C64.47 33.5246 64.4084 33.25 64.2853 33.0085C64.1646 32.767 63.9918 32.5765 63.7669 32.4368C63.5443 32.2971 63.2815 32.2273 62.9785 32.2273C62.6447 32.2273 62.3559 32.3101 62.112 32.4759C61.8706 32.6392 61.6847 32.8523 61.5545 33.1151C61.4243 33.3778 61.3592 33.6596 61.3592 33.9602V34.4432C61.3592 34.8551 61.4302 35.2043 61.5723 35.4908C61.7167 35.7749 61.9167 35.9915 62.1724 36.1406C62.4281 36.2874 62.7252 36.3608 63.0637 36.3608C63.2839 36.3608 63.4828 36.33 63.6603 36.2685C63.8403 36.2045 63.9953 36.1098 64.1255 35.9844C64.2557 35.8565 64.3564 35.6979 64.4274 35.5085L65.237 35.7358C65.1518 36.0104 65.0086 36.2519 64.8074 36.4602C64.6061 36.6662 64.3575 36.8272 64.0616 36.9432C63.7657 37.0568 63.4331 37.1136 63.0637 37.1136ZM66.5971 37V31.5455H67.4068V32.3693H67.4636C67.563 32.0994 67.743 31.8804 68.0034 31.7124C68.2638 31.5443 68.5574 31.4602 68.8841 31.4602C68.9456 31.4602 69.0225 31.4614 69.1149 31.4638C69.2072 31.4661 69.277 31.4697 69.3244 31.4744V32.3267C69.296 32.3196 69.2309 32.3089 69.1291 32.2947C69.0297 32.2782 68.9243 32.2699 68.813 32.2699C68.5479 32.2699 68.3111 32.3255 68.1028 32.4368C67.8968 32.5457 67.7335 32.6972 67.6127 32.8913C67.4944 33.0831 67.4352 33.3021 67.4352 33.5483V37H66.5971ZM72.4387 37.1136C71.9132 37.1136 71.4598 36.9976 71.0787 36.7656C70.6999 36.5312 70.4075 36.2045 70.2015 35.7855C69.9979 35.3641 69.8961 34.8741 69.8961 34.3153C69.8961 33.7566 69.9979 33.2642 70.2015 32.8381C70.4075 32.4096 70.694 32.0758 71.0609 31.8366C71.4302 31.5952 71.8611 31.4744 72.3535 31.4744C72.6376 31.4744 72.9181 31.5218 73.1951 31.6165C73.4721 31.7112 73.7243 31.8651 73.9515 32.0781C74.1788 32.2888 74.3599 32.5682 74.4949 32.9162C74.6298 33.2642 74.6973 33.6927 74.6973 34.2017V34.5568H70.4927V33.8324H73.845C73.845 33.5246 73.7834 33.25 73.6603 33.0085C73.5396 32.767 73.3668 32.5765 73.1419 32.4368C72.9193 32.2971 72.6565 32.2273 72.3535 32.2273C72.0197 32.2273 71.7309 32.3101 71.487 32.4759C71.2456 32.6392 71.0597 32.8523 70.9295 33.1151C70.7993 33.3778 70.7342 33.6596 70.7342 33.9602V34.4432C70.7342 34.8551 70.8052 35.2043 70.9473 35.4908C71.0917 35.7749 71.2917 35.9915 71.5474 36.1406C71.8031 36.2874 72.1002 36.3608 72.4387 36.3608C72.6589 36.3608 72.8578 36.33 73.0353 36.2685C73.2153 36.2045 73.3703 36.1098 73.5005 35.9844C73.6307 35.8565 73.7314 35.6979 73.8024 35.5085L74.612 35.7358C74.5268 36.0104 74.3836 36.2519 74.1824 36.4602C73.9811 36.6662 73.7325 36.8272 73.4366 36.9432C73.1407 37.0568 72.8081 37.1136 72.4387 37.1136ZM78.0318 37.1136C77.5772 37.1136 77.176 36.9988 76.8279 36.7692C76.4799 36.5372 76.2077 36.2105 76.0112 35.7891C75.8147 35.3653 75.7164 34.8646 75.7164 34.2869C75.7164 33.714 75.8147 33.2169 76.0112 32.7955C76.2077 32.3741 76.4811 32.0485 76.8315 31.8189C77.1819 31.5893 77.5867 31.4744 78.046 31.4744C78.4011 31.4744 78.6816 31.5336 78.8876 31.652C79.0959 31.768 79.2546 31.9006 79.3635 32.0497C79.4747 32.1965 79.5611 32.3172 79.6227 32.4119H79.6937V29.7273H80.5318V37H79.7221V36.1619H79.6227C79.5611 36.2614 79.4735 36.3868 79.3599 36.5384C79.2463 36.6875 79.0841 36.8213 78.8734 36.9396C78.6627 37.0556 78.3822 37.1136 78.0318 37.1136ZM78.1454 36.3608C78.4816 36.3608 78.7657 36.2732 78.9977 36.098C79.2297 35.9205 79.4061 35.6754 79.5268 35.3629C79.6475 35.0481 79.7079 34.6847 79.7079 34.2727C79.7079 33.8655 79.6487 33.5092 79.5304 33.2038C79.412 32.8961 79.2368 32.657 79.0048 32.4865C78.7728 32.3137 78.4863 32.2273 78.1454 32.2273C77.7903 32.2273 77.4944 32.3184 77.2576 32.5007C77.0233 32.6806 76.8469 32.9257 76.7285 33.2358C76.6125 33.5436 76.5545 33.8892 76.5545 34.2727C76.5545 34.661 76.6137 35.0137 76.7321 35.331C76.8528 35.6458 77.0304 35.8968 77.2647 36.0838C77.5015 36.2685 77.795 36.3608 78.1454 36.3608ZM85.1092 37V29.7273H85.9473V32.4119H86.0183C86.0798 32.3172 86.1651 32.1965 86.274 32.0497C86.3852 31.9006 86.5439 31.768 86.7498 31.652C86.9582 31.5336 87.2399 31.4744 87.595 31.4744C88.0543 31.4744 88.4591 31.5893 88.8095 31.8189C89.1599 32.0485 89.4333 32.3741 89.6298 32.7955C89.8263 33.2169 89.9245 33.714 89.9245 34.2869C89.9245 34.8646 89.8263 35.3653 89.6298 35.7891C89.4333 36.2105 89.161 36.5372 88.813 36.7692C88.465 36.9988 88.0637 37.1136 87.6092 37.1136C87.2588 37.1136 86.9783 37.0556 86.7676 36.9396C86.5569 36.8213 86.3947 36.6875 86.2811 36.5384C86.1674 36.3868 86.0798 36.2614 86.0183 36.1619H85.9189V37H85.1092ZM85.9331 34.2727C85.9331 34.6847 85.9934 35.0481 86.1142 35.3629C86.2349 35.6754 86.4113 35.9205 86.6433 36.098C86.8753 36.2732 87.1594 36.3608 87.4956 36.3608C87.8459 36.3608 88.1383 36.2685 88.3727 36.0838C88.6094 35.8968 88.787 35.6458 88.9054 35.331C89.0261 35.0137 89.0865 34.661 89.0865 34.2727C89.0865 33.8892 89.0273 33.5436 88.9089 33.2358C88.7929 32.9257 88.6165 32.6806 88.3798 32.5007C88.1454 32.3184 87.8507 32.2273 87.4956 32.2273C87.1547 32.2273 86.8682 32.3137 86.6362 32.4865C86.4042 32.657 86.229 32.8961 86.1106 33.2038C85.9922 33.5092 85.9331 33.8655 85.9331 34.2727ZM91.551 39.0455C91.4089 39.0455 91.2823 39.0336 91.171 39.0099C91.0597 38.9886 90.9828 38.9673 90.9402 38.946L91.1532 38.2074C91.3568 38.2595 91.5368 38.2784 91.693 38.2642C91.8493 38.25 91.9877 38.1802 92.1085 38.0547C92.2316 37.9316 92.344 37.7315 92.4458 37.4545L92.6021 37.0284L90.585 31.5455H91.4941L92.9998 35.892H93.0566L94.5623 31.5455H95.4714L93.1561 37.7955C93.0519 38.0772 92.9229 38.3104 92.769 38.495C92.6151 38.6821 92.4364 38.8205 92.2328 38.9105C92.0315 39.0005 91.8043 39.0455 91.551 39.0455Z" fill="#4A4B57"/>
<path d="M43.778 6.85461C44.8585 6.85461 45.7702 6.98968 46.4962 7.25981C47.239 7.52994 47.8299 7.90137 48.2689 8.39098C48.7079 8.88059 49.0286 9.4715 49.2144 10.1637C49.4001 10.839 49.5014 11.5988 49.5014 12.4429V20.9689C49.0118 21.0871 48.252 21.2221 47.2221 21.3741C46.2092 21.526 45.0611 21.5936 43.778 21.5936C42.9507 21.5936 42.1572 21.526 41.465 21.3403C40.7559 21.1884 40.1819 20.9183 39.6754 20.5637C39.1858 20.2092 38.7975 19.7364 38.5105 19.1624C38.2234 18.5884 38.0884 17.8793 38.0884 17.0351C38.0884 16.2247 38.2403 15.5494 38.5611 14.9923C38.8819 14.4351 39.304 13.9793 39.8273 13.6247C40.3507 13.2871 40.9923 13.017 41.7014 12.865C42.4105 12.7131 43.1364 12.6455 43.9299 12.6455C44.2845 12.6455 44.6728 12.6624 45.0611 12.7131C45.4663 12.7468 45.8715 12.8312 46.3273 12.9325V12.4092C46.3273 12.0377 46.2936 11.6663 46.1923 11.3286C46.091 10.991 45.939 10.6871 45.7195 10.417C45.5001 10.1468 45.2131 9.96111 44.8247 9.80916C44.4702 9.65721 43.9975 9.60656 43.4403 9.60656C42.6806 9.60656 42.0053 9.65721 41.3637 9.77539C40.739 9.89358 40.2325 9.99487 39.8273 10.1468L39.4221 7.51306C39.8442 7.36111 40.4351 7.22604 41.2286 7.07409C42.039 6.92215 42.8663 6.85461 43.778 6.85461ZM44.0481 19.0105C45.0611 19.0105 45.8208 18.9598 46.3442 18.8585V15.2455C46.1754 15.1949 45.9053 15.1273 45.5676 15.0936C45.2299 15.0429 44.8416 15.026 44.4364 15.026C44.0819 15.026 43.7105 15.0429 43.3559 15.0936C43.0014 15.1442 42.6468 15.2455 42.3767 15.3975C42.0728 15.5494 41.8533 15.7351 41.6507 16.0053C41.4819 16.2754 41.3806 16.5962 41.3806 16.9845C41.3806 17.7611 41.6338 18.3014 42.1066 18.5715C42.5624 18.8585 43.2208 19.0105 44.0481 19.0105Z" fill="#303030"/>
<path d="M56.5753 3.08966C56.5753 3.69745 56.3896 4.18706 55.9844 4.55849C55.5792 4.92992 55.1233 5.08187 54.5831 5.08187C54.0259 5.08187 53.5532 4.91303 53.1649 4.55849C52.7597 4.20394 52.574 3.73122 52.574 3.08966C52.574 2.4481 52.7597 1.97537 53.1649 1.60394C53.5701 1.2494 54.0428 1.08057 54.5831 1.08057C55.1064 1.08057 55.5961 1.2494 55.9844 1.60394C56.3727 1.97537 56.5753 2.46498 56.5753 3.08966ZM56.2207 21.3065H52.9623V7.20914H56.2207V21.3065Z" fill="#303030"/>
<path d="M64.004 21.3066C63.1092 19.4663 62.1807 17.3391 61.2352 14.9248C60.2898 12.5274 59.4287 9.94426 58.6521 7.22607H62.13C62.3157 8.01958 62.569 8.86374 62.8053 9.77543C63.0755 10.6871 63.3287 11.5988 63.6326 12.4936C63.9365 13.4053 64.2404 14.2832 64.5443 15.1274C64.8651 15.9884 65.1521 16.7482 65.4222 17.4235C65.6924 16.7482 65.9794 15.9884 66.3001 15.1274C66.604 14.2663 66.9079 13.4053 67.2118 12.4936C67.5157 11.5819 67.8027 10.6702 68.0729 9.77543C68.343 8.86374 68.5794 8.03646 68.782 7.22607H72.1417C71.3651 9.97802 70.504 12.5443 69.5586 14.9248C68.6131 17.3222 67.6846 19.4495 66.7898 21.3066H64.004Z" fill="#303030"/>
<path d="M72.8845 14.317C72.8845 13.0845 73.0702 12.004 73.4417 11.0585C73.7962 10.1299 74.3027 9.35332 74.9105 8.72864C75.5183 8.10396 76.2274 7.64812 77.0209 7.32734C77.8144 7.00656 78.6079 6.85461 79.4521 6.85461C81.3936 6.85461 82.9131 7.46241 83.9936 8.66111C85.0741 9.85981 85.6313 11.6663 85.6313 14.0468C85.6313 14.2157 85.6313 14.4183 85.6144 14.6546C85.6144 14.8741 85.5975 15.0767 85.5806 15.2624H76.2949C76.3962 16.3936 76.7845 17.2715 77.4936 17.8793C78.2027 18.504 79.2326 18.8079 80.5663 18.8079C81.3598 18.8079 82.0858 18.7403 82.7274 18.6053C83.3858 18.4533 83.9092 18.3014 84.2806 18.1494L84.7196 20.8001C84.5508 20.9014 84.2975 20.9858 83.9767 21.0871C83.6559 21.1884 83.3183 21.2728 82.8962 21.3572C82.491 21.4247 82.0689 21.5092 81.5793 21.5598C81.1066 21.6105 80.6339 21.6273 80.1611 21.6273C78.9287 21.6273 77.8482 21.4416 76.9365 21.0702C76.0248 20.7157 75.265 20.1923 74.6741 19.5338C74.0832 18.8754 73.6443 18.1157 73.3404 17.2208C73.0365 16.3429 72.8845 15.3806 72.8845 14.317ZM82.3391 12.865C82.3391 12.4092 82.2884 11.9871 82.1533 11.5988C82.0183 11.1936 81.8495 10.839 81.5962 10.552C81.343 10.2481 81.0728 10.0286 80.7014 9.84293C80.3637 9.67409 79.9417 9.58968 79.4521 9.58968C78.9624 9.58968 78.5066 9.69098 78.1183 9.87669C77.7469 10.0624 77.4092 10.3157 77.1728 10.6195C76.9027 10.9234 76.717 11.278 76.565 11.6663C76.4131 12.0715 76.3118 12.4598 76.2611 12.8819L82.3391 12.865Z" fill="#303030"/>
<path d="M88.5015 7.66501C89.1261 7.49618 89.9365 7.32735 90.9495 7.15852C91.9625 6.98969 93.0768 6.90527 94.2924 6.90527C95.4573 6.90527 96.4028 7.05722 97.1794 7.378C97.956 7.69878 98.5638 8.13774 99.0196 8.71177C99.4755 9.28579 99.7963 9.96112 99.982 10.7546C100.168 11.5481 100.269 12.4261 100.269 13.3715V21.3066H97.0105V13.8949C97.0105 13.1351 96.9599 12.4936 96.8586 11.9702C96.7573 11.4468 96.5885 11.0079 96.369 10.6871C96.1495 10.3663 95.8456 10.1131 95.4573 9.96112C95.0859 9.80917 94.5963 9.74164 94.056 9.74164C93.6339 9.74164 93.2287 9.75852 92.7729 9.80917C92.317 9.85982 91.9963 9.91047 91.7937 9.94423V21.3066H88.5352V7.66501H88.5015Z" fill="#303030"/>
<path d="M23.3661 16.7312C23.8895 16.7312 24.4129 16.8325 24.8856 17.0013C25.6454 16.1234 26.0506 15.178 26.0506 14.1819C26.0506 12.5611 24.9531 11.0078 22.9778 9.79226C20.8506 8.50914 17.9973 7.80005 14.9752 7.80005C11.9363 7.80005 9.0999 8.50914 6.97263 9.80914C4.98042 11.0247 3.8999 12.578 3.8999 14.1988C3.8999 15.178 4.3051 16.1403 5.06484 17.0182C5.55445 16.8494 6.06094 16.7481 6.58432 16.7481C7.78302 16.7481 8.89731 17.2039 9.74146 18.065C10.3324 18.6559 10.7207 19.3819 10.9233 20.1585C12.2064 20.4624 13.5739 20.6143 14.9752 20.6143C16.3765 20.6143 17.7609 20.4455 19.0272 20.1585C19.2129 19.365 19.6181 18.639 20.209 18.065C21.0532 17.2039 22.1674 16.7312 23.3661 16.7312ZM14.9752 13.0169C13.6077 13.0169 12.4934 11.9026 12.4934 10.5351H17.457C17.457 11.9026 16.3428 13.0169 14.9752 13.0169Z" fill="url(#paint0_linear_403_24131)"/>
<path d="M6.34797 8.64416C6.58434 8.49221 6.83758 8.35714 7.09083 8.23896H7.07395C6.44927 7.76623 5.70642 7.54675 4.98044 7.54675C3.91681 7.54675 2.87005 8.01948 2.17784 8.94805L1.90771 9.3026L3.88304 10.7883C4.49083 9.9948 5.3181 9.26883 6.34797 8.64416Z" fill="url(#paint1_linear_403_24131)"/>
<path d="M3.9 17.626C3.24156 16.7819 2.81948 15.8533 2.7013 14.8741C2.66753 14.6546 2.65065 14.4182 2.65065 14.1988C2.65065 13.0676 3.02208 11.9702 3.74805 10.991H3.49481C1.57013 10.991 0 12.5611 0 14.4858V14.9754H2.6C1.92468 15.5325 1.48571 16.326 1.36753 17.204C1.24935 18.1325 1.48571 19.0442 2.05974 19.7871L2.27922 20.0741C2.48182 19.3143 2.87013 18.6221 3.44416 18.0481C3.56234 17.8962 3.73117 17.7611 3.9 17.626Z" fill="url(#paint2_linear_403_24131)"/>
<path d="M26.0506 10.7883L28.0259 9.30255L27.7389 8.91424C27.0467 8.00255 26 7.51294 24.9363 7.51294C24.2103 7.51294 23.4675 7.7493 22.8428 8.20515H22.8259C23.0792 8.34021 23.3324 8.47528 23.5688 8.61034C24.6155 9.26878 25.4428 9.99476 26.0506 10.7883Z" fill="url(#paint3_linear_403_24131)"/>
<path d="M29.9505 14.4688C29.9505 12.5441 28.3804 10.974 26.4557 10.974H26.2025C26.9116 11.9701 27.2999 13.0506 27.2999 14.1818C27.2999 14.4182 27.283 14.6376 27.2492 14.8571C27.1142 15.8195 26.709 16.748 26.0505 17.6091C26.2194 17.7441 26.3882 17.8792 26.5401 18.0311C27.1142 18.6052 27.5025 19.2974 27.7051 20.0571L27.9246 19.7701C28.4986 19.0272 28.735 18.1156 28.6168 17.187C28.4986 16.3091 28.0596 15.5324 27.3843 14.9584H29.9843V14.4688H29.9505Z" fill="url(#paint4_linear_403_24131)"/>
<path d="M10.7546 6.98961C12.6792 6.98961 14.2494 5.41948 14.2494 3.49481C14.2494 1.57013 12.6792 0 10.7546 0C8.8299 0 7.25977 1.57013 7.25977 3.49481C7.25977 5.41948 8.8299 6.98961 10.7546 6.98961ZM10.7546 1.58701C10.7715 1.58701 10.7715 1.58701 10.7546 1.58701C10.5182 1.84026 10.3663 2.17792 10.3663 2.54935C10.3663 3.29221 10.9741 3.9 11.7169 3.9C12.0883 3.9 12.426 3.74805 12.6792 3.49481V3.51169C12.6792 4.57533 11.8182 5.43636 10.7546 5.43636C9.69093 5.43636 8.8299 4.57533 8.8299 3.51169C8.84678 2.43117 9.70782 1.58701 10.7546 1.58701Z" fill="url(#paint5_linear_403_24131)"/>
<path d="M19.1791 6.98961C21.1038 6.98961 22.6739 5.41948 22.6739 3.49481C22.6739 1.57013 21.1038 0 19.1791 0C17.2545 0 15.6843 1.57013 15.6843 3.49481C15.6843 5.41948 17.2376 6.98961 19.1791 6.98961ZM19.1791 1.58701C18.9428 1.84026 18.7908 2.17792 18.7908 2.54935C18.7908 3.29221 19.3986 3.9 20.1415 3.9C20.5129 3.9 20.8506 3.74805 21.1038 3.49481V3.51169C21.1038 4.57533 20.2428 5.43636 19.1791 5.43636C18.1155 5.43636 17.2545 4.57533 17.2545 3.51169C17.2545 2.43117 18.1155 1.58701 19.1791 1.58701Z" fill="url(#paint6_linear_403_24131)"/>
<path d="M6.56756 17.7104C4.64288 17.7104 3.07275 19.2806 3.07275 21.2053C3.07275 23.1299 4.64288 24.7001 6.56756 24.7001C6.97275 24.7001 7.36107 24.6325 7.71561 24.4975C7.68185 24.4637 7.64808 24.4299 7.61431 24.3962C6.60133 23.3832 6.26366 22.0832 6.85457 21.4923C7.44548 20.9014 8.74548 21.239 9.75847 22.252C9.79223 22.2858 9.826 22.3195 9.85977 22.3533C9.99483 21.9988 10.0624 21.6105 10.0624 21.2053C10.0624 19.2806 8.50912 17.7104 6.56756 17.7104Z" fill="url(#paint7_linear_403_24131)"/>
<path d="M23.3661 17.7104C21.4415 17.7104 19.8713 19.2806 19.8713 21.2053C19.8713 21.6105 19.9389 21.9988 20.0739 22.3533C20.1077 22.3195 20.1415 22.2858 20.1752 22.252C21.1882 21.239 22.4882 20.9014 23.0791 21.4923C23.67 22.0832 23.3324 23.3832 22.3194 24.3962C22.2856 24.4299 22.2519 24.4637 22.2181 24.4975C22.5726 24.6325 22.9609 24.7001 23.3661 24.7001C25.2908 24.7001 26.8609 23.1299 26.8609 21.2053C26.8609 19.2806 25.2908 17.7104 23.3661 17.7104Z" fill="url(#paint8_linear_403_24131)"/>
<defs>
<linearGradient id="paint0_linear_403_24131" x1="8.72667" y1="22.6296" x2="22.2708" y2="4.31986" gradientUnits="userSpaceOnUse">
<stop stop-color="#FF7700"/>
<stop offset="0.7423" stop-color="#FF3554"/>
</linearGradient>
<linearGradient id="paint1_linear_403_24131" x1="-0.634545" y1="15.7048" x2="12.9096" y2="-2.60493" gradientUnits="userSpaceOnUse">
<stop stop-color="#FF7700"/>
<stop offset="0.7423" stop-color="#FF3554"/>
</linearGradient>
<linearGradient id="paint2_linear_403_24131" x1="0.974358" y1="16.8949" x2="14.5185" y2="-1.41478" gradientUnits="userSpaceOnUse">
<stop stop-color="#FF7700"/>
<stop offset="0.7423" stop-color="#FF3554"/>
</linearGradient>
<linearGradient id="paint3_linear_403_24131" x1="12.8959" y1="25.7135" x2="26.4401" y2="7.40384" gradientUnits="userSpaceOnUse">
<stop stop-color="#FF7700"/>
<stop offset="0.7423" stop-color="#FF3554"/>
</linearGradient>
<linearGradient id="paint4_linear_403_24131" x1="17.101" y1="28.8242" x2="30.6451" y2="10.5145" gradientUnits="userSpaceOnUse">
<stop stop-color="#FF7700"/>
<stop offset="0.7423" stop-color="#FF3554"/>
</linearGradient>
<linearGradient id="paint5_linear_403_24131" x1="0.892924" y1="16.8346" x2="14.4371" y2="-1.47509" gradientUnits="userSpaceOnUse">
<stop stop-color="#FF7700"/>
<stop offset="0.7423" stop-color="#FF3554"/>
</linearGradient>
<linearGradient id="paint6_linear_403_24131" x1="6.33177" y1="20.8579" x2="19.8759" y2="2.54825" gradientUnits="userSpaceOnUse">
<stop stop-color="#FF7700"/>
<stop offset="0.7423" stop-color="#FF3554"/>
</linearGradient>
<linearGradient id="paint7_linear_403_24131" x1="6.58969" y1="21.0487" x2="20.1338" y2="2.73901" gradientUnits="userSpaceOnUse">
<stop stop-color="#FF7700"/>
<stop offset="0.7423" stop-color="#FF3554"/>
</linearGradient>
<linearGradient id="paint8_linear_403_24131" x1="17.506" y1="29.1239" x2="31.0501" y2="10.8142" gradientUnits="userSpaceOnUse">
<stop stop-color="#FF7700"/>
<stop offset="0.7423" stop-color="#FF3554"/>
</linearGradient>
</defs>
</svg>
